#!OML:ASF H:\Male1\Project 1\Capture day 1\Session 1\Male1.ASF
:FULLY-SPECIFIED
:DEGREES
287
root -23.4244 14.855 1.19099 181.805 43.2892 -179.815
lowerback 6.29718 -0.205024 -7.87818
upperback 4.321 -0.364601 -2.11166
thorax 1.01278 -0.198274 2.24881
lowerneck -8.07726 -5.01819 -1.1505
upperneck 19.0446 -7.50551 6.80499
head 7.48586 -2.85354 1.76592
rclavicle 5.84427e-014 2.54444e-014
rhumerus -37.0289 8.32604 -89.4653
rradius 42.9857
rwrist -24.1009
rhand -19.2621 0.567342
rfingers 7.12502
rthumb 7.05214 -29.2952
lclavicle 5.84427e-014 2.54444e-014
lhumerus -36.2015 10.0032 69.2257
lradius 27.2796
lwrist 8.42927
lhand -25.8069 20.9116
lfingers 7.12502
lthumb 0.732236 50.8901
rfemur -25.7248 -3.11276 23.3489
rtibia 49.2586
rfoot -30.0385 -23.2477
rtoes -20.3841
lfemur -5.33965 -10.6075 -24.734
ltibia 30.022
lfoot -48.3235 25.9817
ltoes 25.3845
288
root -23.4606 14.8527 1.17253 181.773 45.2301 -179.965
lowerback 6.10363 -0.199188 -7.88051
upperback 4.31174 -0.348552 -2.07394
thorax 1.10891 -0.198462 2.28735
lowerneck -8.24203 -4.56352 -0.574886
upperneck 18.9579 -6.87515 6.23493
head 7.41802 -2.57132 1.54003
rclavicle 1.25234e-014 -1.43125e-014
rhumerus -36.9839 7.98189 -89.2225
rradius 42.5749
rwrist -24.1513
rhand -19.7238 0.443835
rfingers 7.12502
rthumb 6.60643 -29.4331
lclavicle 1.25234e-014 -1.43125e-014
lhumerus -35.1216 11.2824 68.7096
lradius 26.1868
lwrist 6.78382
lhand -25.4798 21.4085
lfingers 7.12502
lthumb 1.04813 51.3857
rfemur -25.9687 -4.13443 23.3885
rtibia 49.1197
rfoot -30.8072 -23.7935
rtoes -19.1516
lfemur -5.13325 -10.6478 -25.3329
ltibia 29.8574
lfoot -50.5163 26.0095
ltoes 27.9777
289
root -23.4903 14.8515 1.15452 181.708 47.1002 -180.16
lowerback 5.92436 -0.207542 -7.89212
upperback 4.2958 -0.353485 -2.03389
thorax 1.19241 -0.208675 2.33459
lowerneck -8.38002 -4.04848 0.0607788
upperneck 18.8664 -6.15356 5.56245
head 7.34345 -2.25129 1.27942
rclavicle -1.90833e-014 1.90833e-014
rhumerus -36.9535 7.62162 -88.975
rradius 42.1543
rwrist -24.1479
rhand -20.0583 0.392467
rfingers 7.12502
rthumb 6.28357 -29.4943
lclavicle -1.90833e-014 1.90833e-014
lhumerus -34.1124 12.6995 68.21
lradius 25.4156
lwrist 5.12114
lhand -24.7425 21.8143
lfingers 7.12502
lthumb 1.76023 51.7868
rfemur -26.2094 -4.88918 23.3971
rtibia 48.9323
rfoot -31.7796 -24.1523
rtoes -17.2321
lfemur -4.95901 -10.6415 -25.9188
ltibia 29.688
lfoot -52.5236 26.0958
ltoes 30.158
290
root -23.5143 14.851 1.13702 181.631 48.9124 -180.357
lowerback 5.7716 -0.221796 -7.86161
upperback 4.2757 -0.367259 -1.99482
thorax 1.25695 -0.221548 2.35792
lowerneck -8.47674 -3.48114 0.712885
upperneck 18.7544 -5.35534 4.84864
head 7.26155 -1.89828 1.00966
rclavicle -2.46493e-014 2.06736e-014
rhumerus -36.9547 7.21917 -88.7278
rradius 41.7627
rwrist -24.0531
rhand -20.2172 0.380663
rfingers 7.12502
rthumb 6.1301 -29.5106
lclavicle -2.46493e-014 2.06736e-014
lhumerus -33.1826 14.1472 67.7671
lradius 25.0792
lwrist 3.89481
lhand -23.7072 22.2444
lfingers 7.12502
lthumb 2.76014 52.2063
rfemur -26.4295 -5.34466 23.4096
rtibia 48.6767
rfoot -32.8046 -24.4553
rtoes -15.1021
lfemur -4.8089 -10.5843 -26.4599
ltibia 29.5233
lfoot -54.3641 26.2264
ltoes 32.0204
291
root -23.5329 14.8497 1.11971 181.519 50.6786 -180.564
lowerback 5.65853 -0.23156 -7.78096
upperback 4.25929 -0.375644 -1.96779
thorax 1.30175 -0.229337 2.34087
lowerneck -8.52149 -2.88617 1.32974
upperneck 18.6066 -4.51912 4.16922
head 7.17151 -1.52761 0.760157
rclavicle -7.05686e-014 2.8625e-014
rhumerus -37.0003 6.79492 -88.499
rradius 41.4323
rwrist -23.8923
rhand -20.1845 0.402833
rfingers 7.12502
rthumb 6.16172 -29.4876
lclavicle -7.05686e-014 2.8625e-014
lhumerus -32.3331 15.4602 67.4473
lradius 25.2597
lwrist 3.51118
lhand -22.5448 22.7847
lfingers 7.12502
lthumb 3.88269 52.7291
rfemur -26.5956 -5.49824 23.417
rtibia 48.3408
rfoot -33.7388 -24.8129
rtoes -13.297
lfemur -4.65657 -10.4699 -26.9692
ltibia 29.3742
lfoot -56.0694 26.3669
ltoes 33.6238
292
root -23.5456 14.8467 1.10275 181.349 52.4062 -180.803
lowerback 5.58057 -0.229783 -7.66621
upperback 4.24974 -0.368608 -1.96396
thorax 1.33195 -0.227194 2.28037
lowerneck -8.50149 -2.29821 1.89146
upperneck 18.4134 -3.69653 3.57121
head 7.0698 -1.161 0.544719
rclavicle -6.85807e-014 6.44062e-014
rhumerus -37.0972 6.3678 -88.31
rradius 41.1758
rwrist -23.7105
rhand -20.0228 0.435943
rfingers 7.12502
rthumb 6.31782 -29.4498
lclavicle -6.85807e-014 6.44062e-014
lhumerus -31.5645 16.4595 67.3054
lradius 26.0013
lwrist 4.22778
lhand -21.4509 23.4662
lfingers 7.12502
lthumb 4.93896 53.3886
rfemur -26.687 -5.35352 23.4079
rtibia 47.9221
rfoot -34.5573 -25.2257
rtoes -11.9389
lfemur -4.49279 -10.2572 -27.4538
ltibia 29.251
lfoot -57.6256 26.4645
ltoes 34.9905
293
root -23.5516 14.8417 1.08666 181.107 54.0977 -181.086
lowerback 5.52647 -0.210022 -7.53972
upperback 4.25277 -0.336745 -1.98188
thorax 1.35945 -0.211363 2.18993
lowerneck -8.43608 -1.75796 2.36636
upperneck 18.1915 -2.94585 3.09251
head 6.96469 -0.824102 0.375409
rclavicle 1.45113e-014 5.96354e-014
rhumerus -37.2311 5.96852 -88.167
rradius 40.9773
rwrist -23.5654
rhand -19.7978 0.469894
rfingers 7.12502
rthumb 6.53502 -29.4093
lclavicle 1.45113e-014 5.96354e-014
lhumerus -30.8697 16.9936 67.3954
lradius 27.2877
lwrist 5.97029
lhand -20.6482 24.2606
lfingers 7.12502
lthumb 5.71406 54.1636
rfemur -26.6834 -4.91864 23.3826
rtibia 47.4228
rfoot -35.1965 -25.7195
rtoes -11.1057
lfemur -4.32238 -9.89097 -27.9056
ltibia 29.1752
lfoot -58.9833 26.4969
ltoes 36.0853
294
root -23.5499 14.8342 1.07195 180.805 55.7314 -181.408
lowerback 5.47832 -0.181395 -7.42373
upperback 4.2628 -0.292523 -2.01018
thorax 1.3902 -0.189147 2.09413
lowerneck -8.34308 -1.28569 2.75258
upperneck 17.9727 -2.29477 2.73321
head 6.8661 -0.529045 0.250157
rclavicle -1.86858e-014 1.27222e-014
rhumerus -37.4061 5.61966 -88.0701
rradius 40.8182
rwrist -23.4686
rhand -19.569 0.472647
rfingers 7.12502
rthumb 6.75589 -29.3996
lclavicle -1.86858e-014 1.27222e-014
lhumerus -30.2684 17.0236 67.7039
lradius 29.0493
lwrist 8.46388
lhand -20.2543 24.9401
lfingers 7.12502
lthumb 6.09433 54.8324
rfemur -26.574 -4.20875 23.3507
rtibia 46.8515
rfoot -35.9089 -26.1009
rtoes -9.86378
lfemur -4.16766 -9.32707 -28.2995
ltibia 29.1673
lfoot -60.0521 26.4953
ltoes 36.8351
295
root -23.5408 14.8249 1.05931 180.536 57.2824 -181.691
lowerback 5.42376 -0.153647 -7.27766
upperback 4.2666 -0.248749 -2.03609
thorax 1.4178 -0.166456 1.98418
lowerneck -8.25304 -0.894059 3.07651
upperneck 17.7923 -1.75918 2.45588
head 6.78677 -0.283922 0.151318
rclavicle 7.45443e-014 9.54166e-015
rhumerus -37.6327 5.28698 -88.012
rradius 40.6842
rwrist -23.3838
rhand -19.3733 0.43153
rfingers 7.12502
rthumb 6.94479 -29.4346
lclavicle 7.45443e-014 9.54166e-015
lhumerus -29.7719 16.5871 68.1706
lradius 31.1803
lwrist 11.2193
lhand -20.2096 25.2116
lfingers 7.12502
lthumb 6.13742 55.1027
rfemur -26.3713 -3.22664 23.3614
rtibia 46.2164
rfoot -36.6405 -26.4036
rtoes -8.27561
lfemur -4.08366 -8.5445 -28.5694
ltibia 29.2534
lfoot -60.746 26.5298
ltoes 37.2001
296
root -23.5243 14.8144 1.04857 180.283 58.7205 -181.988
lowerback 5.34504 -0.141496 -7.12083
upperback 4.25839 -0.224458 -2.06673
thorax 1.44807 -0.153208 1.86417
lowerneck -8.21948 -0.572638 3.34616
upperneck 17.6793 -1.32574 2.23994
head 6.74282 -0.0830456 0.0723076
rclavicle -5.06901e-014 1.90833e-014
rhumerus -37.91 4.93816 -87.9793
rradius 40.551
rwrist -23.2741
rhand -19.1688 0.433311
rfingers 7.12502
rthumb 7.14226 -29.4262
lclavicle -5.06901e-014 1.90833e-014
lhumerus -29.3796 15.7368 68.7597
lradius 33.608
lwrist 13.9089
lhand -20.5036 24.9181
lfingers 7.12502
lthumb 5.85362 54.8173
rfemur -26.0957 -2.0078 23.3716
rtibia 45.5376
rfoot -37.3018 -26.6581
rtoes -6.44185
lfemur -4.11407 -7.53866 -28.7402
ltibia 29.4545
lfoot -61.0012 26.689
ltoes 37.1291
297
root -23.5014 14.8042 1.03961 180.062 60.0366 -182.294
lowerback 5.24464 -0.154086 -6.93891
upperback 4.22882 -0.232835 -2.1
thorax 1.47059 -0.15548 1.72879
lowerneck -8.24858 -0.313399 3.55216
upperneck 17.6431 -0.980133 2.07253
head 6.73665 0.0786312 0.0122032
rclavicle 3.45885e-014 -7.95139e-015
rhumerus -38.2423 4.57059 -87.9595
rradius 40.42
rwrist -23.1121
rhand -18.9435 0.455754
rfingers 7.12502
rthumb 7.35968 -29.3962
lclavicle 3.45885e-014 -7.95139e-015
lhumerus -29.0935 14.6267 69.402
lradius 36.2312
lwrist 16.207
lhand -21.019 23.9854
lfingers 7.12502
lthumb 5.356 53.8977
rfemur -25.7721 -0.578681 23.3701
rtibia 44.8365
rfoot -37.8638 -26.8906
rtoes -4.37469
lfemur -4.28098 -6.33659 -28.8175
ltibia 29.7877
lfoot -60.835 26.9934
ltoes 36.6466
298
root -23.4731 14.7952 1.03254 179.913 61.2288 -182.551
lowerback 5.14496 -0.190251 -6.70021
upperback 4.18076 -0.27339 -2.12603
thorax 1.47508 -0.172341 1.57058
lowerneck -8.3447 -0.10398 3.69544
upperneck 17.68 -0.704378 1.94499
head 6.76677 0.208636 -0.0301384
rclavicle 6.36111e-014 2.46493e-014
rhumerus -38.6141 4.17877 -87.9314
rradius 40.2858
rwrist -22.8982
rhand -18.7084 0.499262
rfingers 7.12502
rthumb 7.58665 -29.3447
lclavicle 6.36111e-014 2.46493e-014
lhumerus -28.8849 13.3782 70.069
lradius 38.9637
lwrist 17.9545
lhand -21.7227 22.5317
lfingers 7.12502
lthumb 4.67653 52.46
rfemur -25.4121 1.0143 23.3803
rtibia 44.1395
rfoot -38.0306 -27.2913
rtoes -2.90776
lfemur -4.56347 -4.98715 -28.786
ltibia 30.2526
lfoot -60.3136 27.4095
ltoes 35.8268
